<?xml version="1.0" encoding="utf-8"?>
<!-- Generator: Adobe Illustrator 23.0.4, SVG Export Plug-In . SVG Version: 6.00 Build 0)  -->
<svg version="1.1" id="Layer_1" xmlns="http://www.w3.org/2000/svg" xmlns:xlink="http://www.w3.org/1999/xlink" x="0px" y="0px"
	 viewBox="0 0 159 41" style="enable-background:new 0 0 159 41;" xml:space="preserve">
<style type="text/css">
	.st0{fill:#FFFFFF;}
	.st1{fill-rule:evenodd;clip-rule:evenodd;fill:#FFFFFF;}
</style>
<g id="Page-1">
	<g id="Home-v2" transform="translate(-327.000000, -59.000000)">
		<g id="Amp-X-logo-svg" transform="translate(327.000000, 59.000000)">
			<g id="amplogo" transform="translate(0.000000, 0.316667)">
				<path id="path26" class="st0" d="M13.6,0.3C5.4,1.6-0.5,8.8,0,16.9c0.4,6.5,4.6,11.9,10.8,14.2c1.5,0.5,2.3,0.6,5.2,0.6
					c2.5,0,3-0.2,5.3-0.6c1-0.3,1.5-0.5,1.7-0.6v-7.3l-1.1,0.9c-1.8,1.4-3.3,1.8-6,1.8c-2.9,0-4.6-0.7-6.7-2.7
					c-5.1-4.8-3.8-13,2.6-16c1.6-0.7,3-0.8,4.3-0.8c1.2,0,2.7,0.1,4.1,0.7c1.8,0.9,3.7,2.7,4.5,4.2c1.2,2.3,1.3,3.5,1.3,12.2v8.2h6
					l-0.1-9.4L32,13.4c-0.1-0.7-0.4-1.8-0.7-2.7C28.6,3.5,21-1,13.6,0.3L13.6,0.3z M104.2,0.4c-4.5,0.9-8.6,4.2-10.8,8.4
					c-1.6,3.2-1.7,3.5-1.7,18.1V40h5.9l0.1-13.2c0.1-13,0.1-13.1,0.7-14.6c1.2-3,4.5-5.5,7.8-6.1c4.3-0.7,8.6,1.6,10.6,5.5
					c0.6,1.4,0.7,2.8,0.7,4.2c0,1.3-0.1,2.8-0.8,4.2c-2,3.9-6.4,6.3-10.6,5.5c-1.7-0.3-3.8-1.3-4.8-2.1c-0.3-0.2-0.6-0.4-0.9-0.6
					c0,0,0,1.8,0,3.7v3.6l1.5,0.5c8.9,3.3,18.5-1.5,21.2-10.6c0.6-2.1,0.6-6.4,0-8.5C120.8,3.5,112.5-1.4,104.2,0.4L104.2,0.4z
					 M46.8,0.6c-3.8,1-7.2,3.8-9,7.2c-1.6,3-1.7,4.1-1.7,14.5v9.2h6.2v-9.4c0-8.6,0.1-9.5,0.5-10.6c0.7-1.9,2.1-3.4,4-4.4
					c1.5-0.8,2.6-0.9,3.8-0.9c1,0,2.5,0.1,3.4,0.6c1.7,0.8,3.4,2.5,4.3,4.2c0.4,0.8,0.7,1.8,0.7,2.2L59,22l0.1,9.6H65v-8.4
					c0-8.4,0.2-10.7,1-12.2c0.8-1.5,2.1-2.9,3.8-3.7c1.5-0.8,2.6-0.9,3.8-0.9c1,0,2.5,0.1,3.4,0.6c1.7,0.8,3.4,2.5,4.3,4.2
					c0.3,0.7,0.7,1.6,0.7,2.2l0.1,8.8l0.1,9.6h5.9V22c0-10.5-0.1-11.2-1.6-14.1C86,7,84.8,5.4,83.8,4.4c-2.9-2.9-6-4.2-10.1-4.2
					c-4.1,0-7.1,1.1-10.1,3.9L62,5.6l-1.4-1.4c-1.5-1.5-3.9-2.9-6.2-3.6C52.7,0.1,48.6,0.1,46.8,0.6L46.8,0.6z"/>
			</g>
			<g id="x" transform="translate(123.000000, 2.316667)">
				<path id="Path" class="st1" d="M2.9,1.3L14.6,13c0.4,0.5,0.3,1,0,1.4L0.3,28.6C-0.1,29,0,29.7,0.7,29.7h3.6
					c0.4,0,0.9-0.2,1.3-0.6l14.7-14.7c0.3-0.4,0.3-1.2,0-1.6L8.3,0.7C8,0.4,7.5,0.1,7,0H3.3C2.8,0,2.3,0.8,2.9,1.3z"/>
				<path class="st1" d="M21.9,7.3l6.6-6.6C28.8,0.4,29.2,0,29.9,0h3.3c0.8,0.1,0.7,0.9,0.4,1.3L24.7,10c-0.6,0.5-1,0.2-1.3,0
					l-1.6-1.6C21.6,8.2,21.6,7.6,21.9,7.3z"/>
				<path class="st1" d="M21.9,20.4l8.7,8.7c0.4,0.3,0.8,0.6,1.4,0.6h3.3c0.8-0.1,0.7-0.8,0.4-1.2l-11-10.8c-0.6-0.5-1-0.2-1.3,0
					l-1.6,1.6C21.6,19.6,21.6,20.2,21.9,20.4z"/>
			</g>
		</g>
	</g>
</g>
</svg>
